Simulation
nRows=16
nColumns=15
endheader
time  TH_x TH_y TH_z SC_y  SC_z  SC_x  AC_y  AC_z  AC_x  GH_y  GH_z  GH_yy  EL_x  PS_y
0.0  0.000000  0.000000  0.000000  -32.30217086008573  0.8481057619142379  19.800696335030054  67.79709189632209  4.565507241827212  -9.205837553243287  45.84736278981892  48.2500859278158  -54.61604325738444  24.09418926629024  0.000000
0.023  0.000000  0.000000  0.000000  -32.51130794690351  1.5033189492538412  20.517233669401286  67.7358086614894  5.408284399013576  -8.831035639236056  45.415951010158885  50.0149115550669  -54.64923836372904  24.4603375512481  0.000000
0.046  0.000000  0.000000  0.000000  -32.936836762765786  2.089003874521593  20.793229267114878  67.59591477343163  5.729551024035862  -8.375246632677547  45.17902010501846  51.351265513405735  -54.65518813537393  25.132188571300887  0.000000
0.069  0.000000  0.000000  0.000000  -33.310257058403494  2.377776767842779  20.91020577615707  67.53704405469705  5.847903670674858  -8.094114155798048  45.06788134687012  52.219608851216094  -54.804778551951514  25.618665713569193  0.000000
0.092  0.000000  0.000000  0.000000  -33.554414163435986  2.4480223245699944  20.976332516835253  67.517378483764  5.79838569584802  -8.055475163702084  45.07025976897311  52.719085247429206  -55.109156423735016  25.89936262588235  0.000000
0.11499999999999999  0.000000  0.000000  0.000000  -33.73466077573721  2.281213072992893  21.039326970981097  67.50101565745697  5.55303596605468  -8.241693516938462  45.1951402129708  52.94910120118777  -55.51172057574666  26.07836898866801  0.000000
0.138  0.000000  0.000000  0.000000  -33.85768844529015  1.9924281845935232  21.083650707157634  67.46976249266835  5.145537841405498  -8.595751130776103  45.43224907909991  52.98357691054644  -56.028278820061516  26.18535593555609  0.000000
0.161  0.000000  0.000000  0.000000  -33.91331895333164  1.6367881682433185  21.08612199131989  67.39244761855434  4.708042438463736  -9.022687442986435  45.770766526022214  52.83370851577574  -56.6111615322184  26.21418393948893  0.000000
0.184  0.000000  0.000000  0.000000  -33.91116053438786  1.2871371119311894  21.008707934079794  67.30200523255358  4.332047393372674  -9.439361390103308  46.16557700351777  52.56195929487535  -57.28730524770431  26.170217969241975  0.000000
0.207  0.000000  0.000000  0.000000  -33.8833495532675  0.9941594794380729  20.856737513199125  67.20308369263476  4.052774253135547  -9.750910387090276  46.598481608298044  52.212658840983714  -58.022065038324506  26.065755271217835  0.000000
0.22999999999999998  0.000000  0.000000  0.000000  -33.84746117833528  0.7838311043750474  20.63651921400476  67.12535132929462  3.8686395660394135  -9.931428550897365  47.0366727827804  51.85170937110545  -58.81748471342358  25.939902922227105  0.000000
0.253  0.000000  0.000000  0.000000  -33.816764589231  0.6569915228945292  20.375952462229254  67.07239589134572  3.76881968754657  -9.976426907164477  47.47847412256608  51.506356426722334  -59.64408927411224  25.815365325212376  0.000000
0.276  0.000000  0.000000  0.000000  -33.78422296098311  0.6025286185378483  20.085617119121867  67.04449813076182  3.729680804673388  -9.910000276063451  47.91149099269163  51.20496062545536  -60.49834771245218  25.703047997054526  0.000000
0.299  0.000000  0.000000  0.000000  -33.74697610695158  0.6047907278839932  19.784181458750258  67.0345907795736  3.733535759817365  -9.76600732283696  48.3435185251572  50.944167851004266  -61.360995932110356  25.607274749943894  0.000000
0.322  0.000000  0.000000  0.000000  -33.699864539353015  0.6428659315578243  19.47686716023838  67.03214179632876  3.7575531628147285  -9.572135134447393  48.77461603656166  50.71975026499095  -62.222745375416174  25.529499933063793  0.000000
0.345  0.000000  0.000000  0.000000  -33.64174506012569  0.7000149610082744  19.17160763806079  67.03821199442837  3.7883388225397443  -9.357481691248246  49.20935106300974  50.51648271039651  -63.074639237723005  25.4668858668618  0.000000
